<?xml version="1.0" encoding="utf-8"?>
<!-- Generator: Adobe Illustrator 26.1.0, SVG Export Plug-In . SVG Version: 6.00 Build 0)  -->
<svg version="1.1" id="Capa_1" xmlns="http://www.w3.org/2000/svg" xmlns:xlink="http://www.w3.org/1999/xlink" x="0px" y="0px"
	 viewBox="0 0 11.88 11.88" style="enable-background:new 0 0 11.88 11.88;" xml:space="preserve">
<style type="text/css">
	.st0{fill:#1F9EBC;}
	.st1{fill:#FFFFFF;}
	.st2{fill-rule:evenodd;clip-rule:evenodd;fill:#FFFFFF;}
</style>
<g>
	<path class="st0" d="M9.03,11.88H2.85C1.28,11.88,0,10.6,0,9.03V2.85C0,1.28,1.28,0,2.85,0h6.17c1.58,0,2.85,1.28,2.85,2.85v6.17
		C11.88,10.6,10.6,11.88,9.03,11.88z"/>
	<path class="st1" d="M7.67,6.41l0.21-1.34H6.59V4.19c0-0.37,0.18-0.73,0.76-0.73h0.59V2.32c0,0-0.53-0.09-1.04-0.09
		c-1.06,0-1.76,0.64-1.76,1.81v1.02H3.95v1.34h1.18v3.25h1.45V6.41H7.67z"/>
</g>
</svg>
