<?xml version="1.0" encoding="utf-8"?>
<!-- Generator: Adobe Illustrator 26.1.0, SVG Export Plug-In . SVG Version: 6.00 Build 0)  -->
<svg version="1.1" id="Capa_1" xmlns="http://www.w3.org/2000/svg" xmlns:xlink="http://www.w3.org/1999/xlink" x="0px" y="0px"
	 viewBox="0 0 11.88 11.88" style="enable-background:new 0 0 11.88 11.88;" xml:space="preserve">
<style type="text/css">
	.st0{fill:#1F9EBC;}
	.st1{fill:#FFFFFF;}
	.st2{fill-rule:evenodd;clip-rule:evenodd;fill:#FFFFFF;}
</style>
<g>
	<path class="st0" d="M9.03,11.88H2.85C1.28,11.88,0,10.6,0,9.03V2.85C0,1.28,1.28,0,2.85,0h6.17c1.58,0,2.85,1.28,2.85,2.85v6.17
		C11.88,10.6,10.6,11.88,9.03,11.88z"/>
	<g>
		<g>
			<path class="st1" d="M7.91,3.55c-0.24,0-0.44,0.19-0.44,0.44c0,0.24,0.19,0.44,0.44,0.44c0.24,0,0.44-0.19,0.44-0.44
				C8.34,3.75,8.15,3.55,7.91,3.55z"/>
			<path class="st1" d="M5.97,4.11c-1.01,0-1.83,0.82-1.83,1.83c0,1.01,0.82,1.83,1.83,1.83c1.01,0,1.83-0.82,1.83-1.83
				C7.8,4.93,6.98,4.11,5.97,4.11z M5.97,7.11c-0.65,0-1.17-0.53-1.17-1.17s0.53-1.17,1.17-1.17c0.65,0,1.17,0.53,1.17,1.17
				S6.62,7.11,5.97,7.11z"/>
			<path class="st1" d="M7.42,9.66H4.46c-1.23,0-2.23-1-2.23-2.23V4.46c0-1.23,1-2.23,2.23-2.23h2.97c1.23,0,2.23,1,2.23,2.23v2.97
				C9.66,8.65,8.65,9.66,7.42,9.66z M4.46,2.93c-0.84,0-1.53,0.69-1.53,1.53v2.97c0,0.85,0.69,1.53,1.53,1.53h2.97
				c0.85,0,1.53-0.69,1.53-1.53V4.46c0-0.84-0.69-1.53-1.53-1.53H4.46z"/>
		</g>
	</g>
</g>
</svg>
