<?xml version="1.0" encoding="utf-8"?>
<!-- Generator: Adobe Illustrator 26.1.0, SVG Export Plug-In . SVG Version: 6.00 Build 0)  -->
<svg version="1.1" id="Capa_1" xmlns="http://www.w3.org/2000/svg" xmlns:xlink="http://www.w3.org/1999/xlink" x="0px" y="0px"
	 viewBox="0 0 28.41 32.45" style="enable-background:new 0 0 28.41 32.45;" xml:space="preserve">
<style type="text/css">
	.st0{fill:#FFFFFF;}
	.st1{fill:#093046;}
	.st2{fill:#FAB613;}
</style>
<g>
	<g>
		<path class="st1" d="M12.5,24.89c-0.08,0.23-0.21,0.44-0.4,0.62C11.78,25.83,11.39,26,10.93,26c-0.45,0-0.84-0.16-1.17-0.49
			c-0.33-0.32-0.49-0.71-0.49-1.16v-3.33H5.95v3.33c0,1.1,0.28,1.93,0.83,2.48c0.55,0.55,1.38,0.83,2.48,0.83h3.33
			c1.1,0,1.93-0.28,2.48-0.83c0.3-0.3,0.52-0.69,0.66-1.16l0.08-0.34c0.06-0.3,0.09-0.62,0.09-0.98V19h-3.4V24.89z"/>
		<path class="st1" d="M15.87,18.82h3.26c0.91,0,1.7-0.3,2.36-0.95c0.65-0.65,0.98-1.43,0.98-2.34v-1.66c0-0.9-0.33-1.68-0.98-2.33
			c-0.65-0.65-1.43-0.98-2.34-0.98H12.5v6.36h3.4l-0.09-4.37v-0.33h1.66c0.45,0,0.84,0.16,1.17,0.49c0.33,0.32,0.49,0.71,0.49,1.16
			v1.66c0,0.45-0.16,0.84-0.49,1.17c-0.29,0.29-0.63,0.45-1.02,0.49h-6.7V4.04H7.62l0.11,14.78h4.71"/>
	</g>
	<g>
		<path class="st2" d="M26.98,0H1.43C0.64,0,0,0.64,0,1.43V30.6c0,0.79,0.64,1.43,1.43,1.43h2.54v-1.09H1.43
			c-0.19,0-0.35-0.16-0.35-0.35V1.43c0-0.19,0.16-0.35,0.35-0.35h25.54c0.19,0,0.35,0.16,0.35,0.35V30.6c0,0.19-0.16,0.35-0.35,0.35
			h-2.01v1.09h2.01c0.79,0,1.43-0.64,1.43-1.43V1.43C28.41,0.64,27.77,0,26.98,0z"/>
	</g>
	<g>
		<path class="st1" d="M8.05,31.74c0,0.13-0.03,0.25-0.1,0.36c-0.07,0.11-0.17,0.19-0.3,0.25c-0.13,0.06-0.29,0.09-0.47,0.09
			c-0.22,0-0.4-0.04-0.54-0.12c-0.1-0.06-0.18-0.14-0.25-0.24c-0.06-0.1-0.09-0.2-0.09-0.29c0-0.05,0.02-0.1,0.06-0.14
			c0.04-0.04,0.09-0.06,0.14-0.06c0.05,0,0.09,0.02,0.12,0.05c0.03,0.03,0.06,0.07,0.08,0.13c0.03,0.07,0.06,0.13,0.09,0.18
			c0.03,0.05,0.08,0.09,0.14,0.12c0.06,0.03,0.14,0.05,0.23,0.05c0.13,0,0.24-0.03,0.32-0.09c0.08-0.06,0.12-0.14,0.12-0.23
			c0-0.07-0.02-0.13-0.07-0.18c-0.04-0.05-0.1-0.08-0.17-0.1c-0.07-0.02-0.17-0.05-0.28-0.08c-0.16-0.04-0.29-0.08-0.4-0.13
			c-0.11-0.05-0.19-0.12-0.26-0.2c-0.06-0.09-0.09-0.19-0.09-0.32c0-0.12,0.03-0.23,0.1-0.32c0.07-0.09,0.16-0.17,0.29-0.22
			c0.13-0.05,0.27-0.08,0.44-0.08c0.14,0,0.25,0.02,0.35,0.05c0.1,0.03,0.18,0.08,0.25,0.13s0.11,0.11,0.14,0.18
			s0.05,0.12,0.05,0.18c0,0.05-0.02,0.1-0.06,0.14c-0.04,0.04-0.08,0.06-0.14,0.06c-0.05,0-0.09-0.01-0.12-0.04
			s-0.06-0.07-0.09-0.13c-0.04-0.08-0.09-0.15-0.14-0.2s-0.15-0.07-0.27-0.07c-0.12,0-0.21,0.03-0.28,0.08s-0.11,0.11-0.11,0.18
			c0,0.04,0.01,0.08,0.04,0.11c0.02,0.03,0.06,0.06,0.1,0.08c0.04,0.02,0.09,0.04,0.13,0.05c0.04,0.01,0.11,0.03,0.21,0.06
			c0.12,0.03,0.24,0.06,0.34,0.1c0.1,0.04,0.19,0.08,0.26,0.13s0.13,0.11,0.17,0.19C8.03,31.54,8.05,31.63,8.05,31.74z"/>
		<path class="st1" d="M9.55,31.71H8.75c0,0.09,0.02,0.18,0.06,0.25s0.09,0.13,0.15,0.16c0.06,0.04,0.13,0.05,0.2,0.05
			c0.05,0,0.09-0.01,0.14-0.02c0.04-0.01,0.08-0.03,0.12-0.05s0.07-0.05,0.11-0.08s0.07-0.07,0.13-0.11
			c0.02-0.02,0.05-0.03,0.09-0.03c0.04,0,0.08,0.01,0.1,0.03c0.03,0.02,0.04,0.06,0.04,0.1c0,0.04-0.01,0.08-0.04,0.13
			c-0.03,0.05-0.07,0.1-0.13,0.14c-0.06,0.05-0.13,0.08-0.22,0.11s-0.19,0.05-0.31,0.05c-0.26,0-0.47-0.08-0.62-0.23
			s-0.22-0.36-0.22-0.61c0-0.12,0.02-0.23,0.05-0.34c0.04-0.1,0.09-0.19,0.16-0.27c0.07-0.07,0.15-0.13,0.26-0.17
			s0.21-0.06,0.34-0.06c0.16,0,0.3,0.03,0.41,0.1c0.12,0.07,0.2,0.16,0.26,0.26c0.06,0.11,0.09,0.22,0.09,0.33
			c0,0.1-0.03,0.17-0.09,0.2S9.66,31.71,9.55,31.71z M8.75,31.48h0.75c-0.01-0.14-0.05-0.25-0.11-0.32c-0.07-0.07-0.15-0.1-0.26-0.1
			c-0.1,0-0.19,0.04-0.25,0.11C8.8,31.23,8.76,31.34,8.75,31.48z"/>
		<path class="st1" d="M10.65,31.85v0.34c0,0.08-0.02,0.15-0.06,0.19c-0.04,0.04-0.09,0.06-0.15,0.06c-0.06,0-0.11-0.02-0.15-0.06
			c-0.04-0.04-0.06-0.1-0.06-0.19v-1.15c0-0.19,0.07-0.28,0.2-0.28c0.07,0,0.12,0.02,0.15,0.06c0.03,0.04,0.05,0.11,0.05,0.19
			c0.05-0.08,0.1-0.15,0.15-0.19c0.05-0.04,0.12-0.06,0.21-0.06s0.17,0.02,0.25,0.06s0.12,0.1,0.12,0.17c0,0.05-0.02,0.09-0.05,0.12
			c-0.03,0.03-0.07,0.05-0.11,0.05c-0.02,0-0.05-0.01-0.11-0.03s-0.11-0.03-0.15-0.03c-0.06,0-0.11,0.02-0.15,0.05
			c-0.04,0.03-0.07,0.08-0.09,0.14c-0.02,0.06-0.04,0.14-0.04,0.22C10.65,31.62,10.65,31.73,10.65,31.85z"/>
		<path class="st1" d="M11.84,31.03l0.33,0.94l0.36-0.98c0.03-0.08,0.06-0.13,0.08-0.17s0.07-0.05,0.12-0.05
			c0.05,0,0.1,0.02,0.13,0.05c0.04,0.04,0.06,0.08,0.06,0.12c0,0.02,0,0.04-0.01,0.06c-0.01,0.02-0.01,0.05-0.02,0.07
			c-0.01,0.02-0.02,0.05-0.03,0.07l-0.4,0.98c-0.01,0.03-0.03,0.06-0.04,0.11c-0.02,0.04-0.04,0.08-0.06,0.11
			c-0.02,0.03-0.05,0.05-0.08,0.07c-0.03,0.02-0.07,0.03-0.12,0.03c-0.06,0-0.1-0.01-0.14-0.04c-0.03-0.03-0.06-0.06-0.08-0.09
			c-0.02-0.03-0.04-0.09-0.08-0.19l-0.39-0.97c-0.01-0.02-0.02-0.05-0.03-0.07c-0.01-0.02-0.02-0.05-0.02-0.07
			c-0.01-0.03-0.01-0.05-0.01-0.06c0-0.03,0.01-0.06,0.03-0.08c0.02-0.03,0.04-0.05,0.07-0.07c0.03-0.02,0.06-0.03,0.1-0.03
			c0.07,0,0.12,0.02,0.14,0.06C11.78,30.87,11.81,30.93,11.84,31.03z"/>
		<path class="st1" d="M13.44,30.58c-0.06,0-0.11-0.02-0.15-0.05c-0.04-0.04-0.06-0.09-0.06-0.15c0-0.06,0.02-0.11,0.06-0.14
			s0.09-0.06,0.15-0.06c0.05,0,0.1,0.02,0.14,0.05s0.06,0.08,0.06,0.15c0,0.06-0.02,0.11-0.06,0.15
			C13.54,30.56,13.49,30.58,13.44,30.58z M13.64,31v1.19c0,0.08-0.02,0.14-0.06,0.19c-0.04,0.04-0.09,0.06-0.15,0.06
			c-0.06,0-0.11-0.02-0.15-0.06s-0.06-0.11-0.06-0.19v-1.18c0-0.08,0.02-0.14,0.06-0.18s0.09-0.06,0.15-0.06
			c0.06,0,0.11,0.02,0.15,0.06C13.62,30.87,13.64,30.93,13.64,31z"/>
		<path class="st1" d="M15.54,31.94c0,0.05-0.02,0.11-0.05,0.16c-0.03,0.06-0.08,0.11-0.14,0.17c-0.06,0.05-0.14,0.1-0.24,0.13
			s-0.2,0.05-0.32,0.05c-0.25,0-0.45-0.07-0.6-0.22c-0.14-0.15-0.21-0.35-0.21-0.6c0-0.17,0.03-0.32,0.1-0.45
			c0.07-0.13,0.16-0.23,0.28-0.3c0.12-0.07,0.27-0.11,0.44-0.11c0.11,0,0.2,0.02,0.29,0.05c0.09,0.03,0.16,0.07,0.23,0.12
			c0.06,0.05,0.11,0.1,0.14,0.16s0.05,0.11,0.05,0.16c0,0.05-0.02,0.09-0.06,0.13c-0.04,0.03-0.08,0.05-0.13,0.05
			c-0.03,0-0.06-0.01-0.09-0.03c-0.02-0.02-0.05-0.05-0.08-0.09c-0.05-0.08-0.1-0.13-0.16-0.17c-0.05-0.04-0.12-0.06-0.21-0.06
			c-0.12,0-0.22,0.05-0.29,0.14c-0.07,0.1-0.11,0.23-0.11,0.39c0,0.08,0.01,0.15,0.03,0.21s0.05,0.12,0.08,0.17
			c0.04,0.05,0.08,0.08,0.13,0.1c0.05,0.02,0.11,0.04,0.17,0.04c0.08,0,0.15-0.02,0.21-0.06c0.06-0.04,0.11-0.1,0.16-0.18
			c0.03-0.05,0.05-0.08,0.08-0.11c0.03-0.03,0.06-0.04,0.11-0.04c0.05,0,0.09,0.02,0.13,0.06S15.54,31.89,15.54,31.94z"/>
		<path class="st1" d="M16.11,30.58c-0.06,0-0.11-0.02-0.15-0.05c-0.04-0.04-0.06-0.09-0.06-0.15c0-0.06,0.02-0.11,0.06-0.14
			c0.04-0.04,0.09-0.06,0.15-0.06c0.05,0,0.1,0.02,0.14,0.05s0.06,0.08,0.06,0.15c0,0.06-0.02,0.11-0.06,0.15
			S16.16,30.58,16.11,30.58z M16.31,31v1.19c0,0.08-0.02,0.14-0.06,0.19s-0.09,0.06-0.15,0.06c-0.06,0-0.11-0.02-0.15-0.06
			s-0.06-0.11-0.06-0.19v-1.18c0-0.08,0.02-0.14,0.06-0.18s0.09-0.06,0.15-0.06c0.06,0,0.11,0.02,0.15,0.06S16.31,30.93,16.31,31z"
			/>
		<path class="st1" d="M18.28,31.61c0,0.12-0.02,0.24-0.06,0.34c-0.04,0.1-0.09,0.19-0.17,0.27c-0.07,0.07-0.16,0.13-0.26,0.17
			s-0.21,0.06-0.34,0.06c-0.12,0-0.24-0.02-0.34-0.06s-0.19-0.1-0.26-0.17c-0.07-0.07-0.13-0.16-0.17-0.27s-0.06-0.22-0.06-0.34
			c0-0.12,0.02-0.24,0.06-0.34c0.04-0.1,0.09-0.19,0.16-0.27c0.07-0.07,0.16-0.13,0.26-0.17c0.1-0.04,0.21-0.06,0.34-0.06
			c0.12,0,0.24,0.02,0.34,0.06c0.1,0.04,0.19,0.1,0.26,0.17c0.07,0.07,0.13,0.16,0.17,0.27C18.26,31.37,18.28,31.48,18.28,31.61z
			 M17.87,31.61c0-0.17-0.04-0.3-0.11-0.39s-0.17-0.14-0.3-0.14c-0.08,0-0.15,0.02-0.21,0.06s-0.11,0.1-0.14,0.18
			c-0.03,0.08-0.05,0.18-0.05,0.29c0,0.11,0.02,0.2,0.05,0.28s0.08,0.14,0.14,0.18c0.06,0.04,0.13,0.06,0.22,0.06
			c0.12,0,0.22-0.05,0.3-0.14C17.83,31.9,17.87,31.77,17.87,31.61z"/>
		<path class="st1" d="M19.93,31.91c0,0.11-0.03,0.21-0.08,0.29c-0.06,0.08-0.14,0.14-0.25,0.18c-0.11,0.04-0.24,0.06-0.39,0.06
			c-0.15,0-0.27-0.02-0.38-0.07c-0.11-0.05-0.18-0.1-0.23-0.17c-0.05-0.07-0.08-0.14-0.08-0.2c0-0.05,0.02-0.08,0.05-0.12
			s0.07-0.05,0.12-0.05c0.04,0,0.08,0.01,0.1,0.03s0.05,0.05,0.07,0.09c0.04,0.07,0.09,0.13,0.15,0.16
			c0.06,0.04,0.14,0.05,0.24,0.05c0.08,0,0.15-0.02,0.2-0.06s0.08-0.08,0.08-0.13c0-0.07-0.03-0.13-0.08-0.16
			c-0.05-0.03-0.15-0.06-0.27-0.1c-0.14-0.04-0.26-0.07-0.35-0.11c-0.09-0.04-0.16-0.09-0.21-0.15c-0.05-0.06-0.08-0.14-0.08-0.23
			c0-0.08,0.02-0.16,0.07-0.23s0.12-0.13,0.22-0.18c0.1-0.04,0.21-0.07,0.35-0.07c0.11,0,0.2,0.01,0.29,0.03
			c0.09,0.02,0.16,0.05,0.21,0.09c0.06,0.04,0.1,0.08,0.13,0.12c0.03,0.05,0.04,0.09,0.04,0.13c0,0.05-0.02,0.09-0.05,0.12
			c-0.03,0.03-0.08,0.05-0.14,0.05c-0.04,0-0.08-0.01-0.11-0.04c-0.03-0.02-0.06-0.06-0.1-0.11c-0.03-0.04-0.07-0.07-0.11-0.1
			c-0.04-0.02-0.1-0.04-0.17-0.04c-0.07,0-0.14,0.02-0.19,0.05s-0.07,0.07-0.07,0.12c0,0.04,0.02,0.08,0.05,0.11
			c0.04,0.03,0.09,0.05,0.15,0.07s0.15,0.04,0.25,0.07c0.13,0.03,0.23,0.07,0.31,0.11c0.08,0.04,0.14,0.09,0.18,0.15
			C19.91,31.76,19.93,31.83,19.93,31.91z"/>
		<path class="st1" d="M22.52,30.57h-0.49v1.61c0,0.09-0.02,0.16-0.06,0.21c-0.04,0.04-0.09,0.07-0.16,0.07
			c-0.07,0-0.12-0.02-0.16-0.07c-0.04-0.05-0.06-0.11-0.06-0.21v-1.61h-0.49c-0.08,0-0.13-0.02-0.17-0.05
			c-0.04-0.03-0.06-0.08-0.06-0.13c0-0.06,0.02-0.1,0.06-0.14c0.04-0.03,0.09-0.05,0.17-0.05h1.42c0.08,0,0.14,0.02,0.17,0.05
			c0.04,0.03,0.06,0.08,0.06,0.13s-0.02,0.1-0.06,0.13S22.59,30.57,22.52,30.57z"/>
		<path class="st1" d="M23.03,32.17v-1.74c0-0.09,0.02-0.16,0.06-0.2c0.04-0.05,0.09-0.07,0.16-0.07c0.07,0,0.12,0.02,0.16,0.07
			c0.04,0.04,0.06,0.11,0.06,0.2v1.74c0,0.09-0.02,0.16-0.06,0.21c-0.04,0.05-0.1,0.07-0.16,0.07c-0.06,0-0.12-0.02-0.16-0.07
			C23.05,32.33,23.03,32.26,23.03,32.17z"/>
	</g>
</g>
</svg>
