<?xml version="1.0" encoding="utf-8"?>
<!-- Generator: Adobe Illustrator 26.1.0, SVG Export Plug-In . SVG Version: 6.00 Build 0)  -->
<svg version="1.1" id="Capa_1" xmlns="http://www.w3.org/2000/svg" xmlns:xlink="http://www.w3.org/1999/xlink" x="0px" y="0px"
	 viewBox="0 0 7.24 10.36" style="enable-background:new 0 0 7.24 10.36;" xml:space="preserve">
<style type="text/css">
	.st0{fill:#FFFFFF;}
	.st1{fill:#093046;}
	.st2{fill:#FAB613;}
</style>
<g>
	<path class="st0" d="M2.87,9.15C2.84,9.25,2.78,9.34,2.7,9.42C2.56,9.56,2.38,9.63,2.18,9.63c-0.2,0-0.37-0.07-0.51-0.21
		C1.53,9.28,1.45,9.11,1.45,8.91V7.45H0v1.46C0,9.39,0.12,9.75,0.37,10c0.24,0.24,0.61,0.37,1.09,0.37h1.46
		C3.4,10.36,3.76,10.24,4,10c0.13-0.13,0.23-0.3,0.29-0.51l0.04-0.15c0.03-0.13,0.04-0.27,0.04-0.43V6.56H2.87V9.15z"/>
	<path class="st0" d="M4.35,6.48h1.43c0.4,0,0.75-0.13,1.03-0.42C7.1,5.78,7.24,5.44,7.24,5.04V4.31c0-0.4-0.14-0.74-0.43-1.02
		C6.53,3,6.19,2.86,5.79,2.86H2.87v2.79h1.49L4.33,3.73V3.59h0.73c0.2,0,0.37,0.07,0.51,0.21c0.14,0.14,0.22,0.31,0.22,0.51v0.73
		c0,0.2-0.07,0.37-0.22,0.51c-0.13,0.13-0.28,0.2-0.45,0.21H2.18V0H0.73l0.05,6.48h2.06"/>
</g>
</svg>
