<?xml version="1.0" encoding="utf-8"?>
<!-- Generator: Adobe Illustrator 26.1.0, SVG Export Plug-In . SVG Version: 6.00 Build 0)  -->
<svg version="1.1" id="Capa_1" xmlns="http://www.w3.org/2000/svg" xmlns:xlink="http://www.w3.org/1999/xlink" x="0px" y="0px"
	 viewBox="0 0 11.88 11.88" style="enable-background:new 0 0 11.88 11.88;" xml:space="preserve">
<style type="text/css">
	.st0{fill:#1F9EBC;}
	.st1{fill:#FFFFFF;}
	.st2{fill-rule:evenodd;clip-rule:evenodd;fill:#FFFFFF;}
</style>
<g>
	<path class="st0" d="M9.03,11.88H2.85C1.28,11.88,0,10.6,0,9.03V2.85C0,1.28,1.28,0,2.85,0h6.17c1.58,0,2.85,1.28,2.85,2.85v6.17
		C11.88,10.6,10.6,11.88,9.03,11.88z"/>
	<g>
		<path class="st1" d="M2.24,9.66l0.53-1.99C2.47,7.12,2.31,6.51,2.31,5.9c0-2.02,1.65-3.67,3.67-3.67C8,2.23,9.65,3.87,9.65,5.9
			c0,2.02-1.65,3.67-3.67,3.67c-0.61,0-1.21-0.15-1.74-0.44L2.24,9.66z M4.33,8.38l0.13,0.08c0.46,0.28,0.99,0.42,1.52,0.42
			c1.64,0,2.98-1.33,2.98-2.98c0-1.64-1.33-2.98-2.98-2.98C4.34,2.92,3,4.25,3,5.9c0,0.54,0.15,1.08,0.44,1.54l0.08,0.13l-0.3,1.11
			L4.33,8.38z"/>
		<path class="st2" d="M7.34,6.41C7.19,6.32,6.99,6.21,6.82,6.29C6.68,6.34,6.59,6.56,6.5,6.67C6.46,6.72,6.4,6.73,6.34,6.7
			c-0.51-0.2-0.9-0.55-1.19-1.02C5.1,5.61,5.11,5.55,5.17,5.49c0.09-0.1,0.19-0.21,0.22-0.35C5.4,5,5.34,4.84,5.29,4.72
			C5.21,4.57,5.13,4.35,4.98,4.26C4.84,4.18,4.65,4.23,4.52,4.33C4.31,4.51,4.2,4.78,4.2,5.06c0,0.08,0.01,0.16,0.03,0.23
			c0.04,0.18,0.13,0.35,0.22,0.51C4.53,5.93,4.6,6.05,4.69,6.16C4.96,6.53,5.3,6.86,5.7,7.1c0.2,0.12,0.41,0.23,0.63,0.3
			c0.25,0.08,0.47,0.17,0.73,0.12c0.28-0.05,0.55-0.23,0.66-0.49c0.03-0.08,0.05-0.17,0.03-0.25C7.72,6.59,7.48,6.49,7.34,6.41z"/>
	</g>
</g>
</svg>
