<?xml version="1.0" encoding="utf-8"?>
<!-- Generator: Adobe Illustrator 26.1.0, SVG Export Plug-In . SVG Version: 6.00 Build 0)  -->
<svg version="1.1" id="Capa_1" xmlns="http://www.w3.org/2000/svg" xmlns:xlink="http://www.w3.org/1999/xlink" x="0px" y="0px"
	 viewBox="0 0 11.02 11.02" style="enable-background:new 0 0 11.02 11.02;" xml:space="preserve">
<style type="text/css">
	.st0{fill:#C3C5C9;}
	.st1{fill:#093046;}
	.st2{fill:#FFFFFF;}
	.st3{fill:none;stroke:#FAB613;stroke-miterlimit:10;}
	.st4{fill:none;stroke:#093046;stroke-width:0.5;stroke-linecap:round;stroke-linejoin:round;stroke-miterlimit:10;}
</style>
<g>
	<path class="st1" d="M10.01,11.02c-0.29-0.07-0.48-0.27-0.68-0.47C8.48,9.7,7.62,8.85,6.77,7.99C6.74,7.96,6.72,7.93,6.7,7.91
		C6.43,8.05,6.17,8.19,5.91,8.3C5.27,8.56,4.61,8.66,3.93,8.6C3.06,8.52,2.28,8.2,1.61,7.66C1.02,7.19,0.58,6.6,0.31,5.9
		C0.15,5.51,0.05,5.11,0.02,4.7c0-0.02-0.01-0.03-0.02-0.05c0-0.23,0-0.46,0-0.69C0.03,3.8,0.05,3.63,0.08,3.47
		c0.28-1.3,1-2.29,2.16-2.94C3,0.11,3.82-0.06,4.69,0.02c1.18,0.12,2.16,0.63,2.92,1.54C8.14,2.18,8.45,2.9,8.57,3.7
		C8.71,4.76,8.5,5.73,7.93,6.64C7.92,6.65,7.91,6.66,7.9,6.68c0.03,0.03,0.06,0.06,0.09,0.09C8.9,7.68,9.81,8.6,10.73,9.51
		c0.26,0.26,0.36,0.56,0.25,0.92c-0.09,0.27-0.28,0.45-0.55,0.55c-0.04,0.01-0.08,0.03-0.12,0.04
		C10.21,11.02,10.11,11.02,10.01,11.02z M4.44,8.18C6.62,8.11,8.38,6.2,8.16,3.92C7.96,1.9,6.18,0.24,3.92,0.46
		C1.9,0.65,0.24,2.44,0.46,4.7C0.66,6.75,2.42,8.24,4.44,8.18z M7.98,8.58c0,0,0.01,0.02,0.03,0.03c0.61,0.61,1.21,1.21,1.82,1.82
		c0.03,0.03,0.05,0.05,0.08,0.07c0.16,0.12,0.37,0.12,0.53-0.01c0.21-0.18,0.21-0.45,0-0.67c-0.6-0.61-1.21-1.21-1.82-1.82
		C8.59,7.99,8.57,7.98,8.58,7.98C8.37,8.18,8.18,8.38,7.98,8.58z M8.22,7.67C8.01,7.46,7.82,7.26,7.65,7.09
		C7.46,7.28,7.27,7.47,7.07,7.66c0.17,0.17,0.37,0.37,0.58,0.57c0.09-0.08,0.19-0.17,0.28-0.26C8.04,7.87,8.14,7.76,8.22,7.67z"/>
	<path class="st1" d="M7.75,4.31c0,1.9-1.55,3.44-3.45,3.44c-1.9,0-3.44-1.55-3.44-3.45c0-1.9,1.56-3.44,3.46-3.43
		C6.21,0.87,7.75,2.42,7.75,4.31z M7.32,4.32C7.31,2.69,6.04,1.32,4.32,1.3C2.7,1.28,1.31,2.56,1.3,4.29
		c-0.02,1.63,1.27,3.02,3,3.03C5.93,7.33,7.28,6.04,7.32,4.32z"/>
</g>
</svg>
