<?xml version="1.0" encoding="utf-8"?>
<!-- Generator: Adobe Illustrator 26.1.0, SVG Export Plug-In . SVG Version: 6.00 Build 0)  -->
<svg version="1.1" id="Capa_1" xmlns="http://www.w3.org/2000/svg" xmlns:xlink="http://www.w3.org/1999/xlink" x="0px" y="0px"
	 viewBox="0 0 10.67 10.67" style="enable-background:new 0 0 10.67 10.67;" xml:space="preserve">
<style type="text/css">
	.st0{fill:#C3C5C9;}
	.st1{fill:#093046;}
	.st2{fill:#FFFFFF;}
	.st3{fill:none;stroke:#FAB613;stroke-miterlimit:10;}
	.st4{fill:none;stroke:#093046;stroke-width:0.5;stroke-linecap:round;stroke-linejoin:round;stroke-miterlimit:10;}
</style>
<g>
	<path class="st1" d="M8.08,0c0.28,0,0.56,0,0.83,0c0,0.28,0,0.55,0,0.83c0.18,0,0.35,0,0.51,0c0.45,0.01,0.81,0.21,1.05,0.59
		c0.09,0.15,0.13,0.32,0.19,0.49c0,2.56,0,5.11,0,7.67c-0.01,0.02-0.02,0.03-0.02,0.05c-0.12,0.62-0.62,1.04-1.25,1.04
		c-2.71,0-5.42,0-8.13,0C0.55,10.67,0,10.12,0,9.41C0,6.97,0,4.53,0,2.1c0-0.06,0-0.12,0.01-0.18C0.1,1.26,0.67,0.81,1.3,0.83
		c0.15,0.01,0.3,0,0.45,0c0-0.29,0-0.56,0-0.83c0.28,0,0.56,0,0.83,0c0,0.28,0,0.55,0,0.83c1.84,0,3.67,0,5.5,0
		C8.08,0.55,8.08,0.27,8.08,0z M0.83,3.92c0,0.04,0,0.08,0,0.11c0,1.77,0,3.54,0,5.31c0,0.33,0.16,0.49,0.49,0.49
		c2.67,0,5.34,0,8.01,0c0.34,0,0.5-0.16,0.5-0.5c0-1.77,0-3.53,0-5.3c0-0.04,0-0.07,0-0.11C6.83,3.92,3.84,3.92,0.83,3.92z
		 M0.83,3.08c3.01,0,6,0,9,0c0-0.34,0.01-0.67,0-1C9.83,1.86,9.69,1.7,9.48,1.68c-0.18-0.02-0.37,0-0.57,0c0,0.27,0,0.55,0,0.82
		c-0.28,0-0.55,0-0.83,0c0-0.28,0-0.55,0-0.82c-1.84,0-3.67,0-5.5,0c0,0.28,0,0.55,0,0.82c-0.28,0-0.55,0-0.83,0
		c0-0.28,0-0.55,0-0.83c-0.18,0-0.34-0.01-0.51,0c-0.23,0.01-0.39,0.17-0.4,0.4C0.83,2.4,0.83,2.74,0.83,3.08z"/>
	<path class="st1" d="M2.41,4.8c0,0.27,0,0.54,0,0.82c-0.27,0-0.54,0-0.82,0c0-0.27,0-0.54,0-0.82C1.86,4.8,2.13,4.8,2.41,4.8z"/>
	<path class="st1" d="M4.08,4.8c0,0.28,0,0.55,0,0.82c-0.27,0-0.54,0-0.82,0c0-0.27,0-0.54,0-0.82C3.53,4.8,3.8,4.8,4.08,4.8z"/>
	<path class="st1" d="M5.75,4.8c0,0.28,0,0.55,0,0.82c-0.27,0-0.54,0-0.82,0c0-0.27,0-0.54,0-0.82C5.19,4.8,5.47,4.8,5.75,4.8z"/>
	<path class="st1" d="M6.59,5.62c0-0.27,0-0.54,0-0.82c0.27,0,0.54,0,0.82,0c0,0.27,0,0.54,0,0.82C7.14,5.62,6.87,5.62,6.59,5.62z"
		/>
	<path class="st1" d="M9.08,5.62c-0.28,0-0.55,0-0.82,0c0-0.27,0-0.54,0-0.82c0.27,0,0.54,0,0.82,0C9.08,5.07,9.08,5.34,9.08,5.62z"
		/>
	<path class="st1" d="M2.41,6.47c0,0.28,0,0.55,0,0.82c-0.27,0-0.54,0-0.82,0c0-0.27,0-0.54,0-0.82C1.86,6.47,2.13,6.47,2.41,6.47z"
		/>
	<path class="st1" d="M3.26,6.46c0.28,0,0.55,0,0.82,0c0,0.27,0,0.54,0,0.82c-0.27,0-0.54,0-0.82,0C3.26,7.02,3.26,6.74,3.26,6.46z"
		/>
	<path class="st1" d="M4.92,7.29c0-0.28,0-0.55,0-0.82c0.27,0,0.54,0,0.82,0c0,0.27,0,0.54,0,0.82C5.47,7.29,5.2,7.29,4.92,7.29z"/>
	<path class="st1" d="M7.41,7.29c-0.28,0-0.54,0-0.82,0c0-0.27,0-0.54,0-0.82c0.27,0,0.54,0,0.82,0C7.41,6.74,7.41,7.01,7.41,7.29z"
		/>
	<path class="st1" d="M8.26,6.46c0.28,0,0.54,0,0.82,0c0,0.27,0,0.54,0,0.82c-0.27,0-0.54,0-0.82,0C8.26,7.01,8.26,6.74,8.26,6.46z"
		/>
	<path class="st1" d="M2.41,8.13c0,0.28,0,0.55,0,0.82c-0.27,0-0.54,0-0.82,0c0-0.27,0-0.54,0-0.82C1.86,8.13,2.13,8.13,2.41,8.13z"
		/>
	<path class="st1" d="M4.08,8.96c-0.28,0-0.55,0-0.82,0c0-0.27,0-0.54,0-0.82c0.27,0,0.54,0,0.82,0C4.08,8.4,4.08,8.68,4.08,8.96z"
		/>
	<path class="st1" d="M5.74,8.96c-0.28,0-0.55,0-0.82,0c0-0.27,0-0.54,0-0.82c0.27,0,0.54,0,0.82,0C5.74,8.4,5.74,8.68,5.74,8.96z"
		/>
	<path class="st1" d="M7.41,8.13c0,0.28,0,0.55,0,0.82c-0.27,0-0.54,0-0.82,0c0-0.27,0-0.54,0-0.82C6.86,8.13,7.13,8.13,7.41,8.13z"
		/>
</g>
</svg>
