<?xml version="1.0" encoding="utf-8"?>
<!-- Generator: Adobe Illustrator 26.1.0, SVG Export Plug-In . SVG Version: 6.00 Build 0)  -->
<svg version="1.1" id="Capa_1" xmlns="http://www.w3.org/2000/svg" xmlns:xlink="http://www.w3.org/1999/xlink" x="0px" y="0px"
	 viewBox="0 0 9.15 10.68" style="enable-background:new 0 0 9.15 10.68;" xml:space="preserve">
<style type="text/css">
	.st0{fill:#C3C5C9;}
	.st1{fill:#093046;}
	.st2{fill:#FFFFFF;}
	.st3{fill:none;stroke:#FAB613;stroke-miterlimit:10;}
	.st4{fill:none;stroke:#093046;stroke-width:0.5;stroke-linecap:round;stroke-linejoin:round;stroke-miterlimit:10;}
</style>
<g>
	<path class="st1" d="M1.52,3.55c0-0.18,0-0.35,0-0.52c0-1.49,1.1-2.76,2.57-2.99c1.63-0.26,3.16,0.81,3.48,2.42
		C7.6,2.64,7.61,2.83,7.62,3.01c0.01,0.17,0,0.35,0,0.54c0.05,0,0.09,0,0.13,0c0.28,0,0.56,0,0.83,0c0.36,0,0.56,0.21,0.56,0.56
		c0,2,0,3.99,0,5.99c0,0.36-0.2,0.57-0.56,0.57c-2.68,0-5.36,0-8.04,0C0.2,10.68,0,10.47,0,10.12c0-2,0-4,0-6
		c0-0.35,0.2-0.56,0.55-0.56c0.28,0,0.56,0,0.83,0C1.43,3.55,1.47,3.55,1.52,3.55z M1.03,4.59c0,1.69,0,3.37,0,5.06
		c2.37,0,4.73,0,7.09,0c0-1.69,0-3.37,0-5.06C5.75,4.59,3.39,4.59,1.03,4.59z M6.62,3.55c-0.02-0.3,0-0.6-0.06-0.89
		c-0.23-1.13-1.28-1.84-2.4-1.59C2.98,1.32,2.4,2.36,2.56,3.55C3.9,3.55,5.24,3.55,6.62,3.55z"/>
	<path class="st1" d="M5.09,8.64c-0.35,0-0.68,0-1.02,0c0-0.06,0-0.12,0-0.18c0-0.29,0-0.57,0-0.86c0-0.08-0.02-0.13-0.09-0.18
		C3.63,7.16,3.48,6.81,3.58,6.38c0.1-0.41,0.37-0.68,0.79-0.77c0.45-0.1,0.92,0.13,1.12,0.56c0.2,0.42,0.09,0.94-0.28,1.22
		C5.11,7.47,5.08,7.55,5.08,7.68C5.09,7.99,5.09,8.31,5.09,8.64z"/>
</g>
</svg>
