<?xml version="1.0" encoding="utf-8"?>
<!-- Generator: Adobe Illustrator 26.1.0, SVG Export Plug-In . SVG Version: 6.00 Build 0)  -->
<svg version="1.1" id="Capa_1" xmlns="http://www.w3.org/2000/svg" xmlns:xlink="http://www.w3.org/1999/xlink" x="0px" y="0px"
	 viewBox="0 0 10.01 11.55" style="enable-background:new 0 0 10.01 11.55;" xml:space="preserve">
<style type="text/css">
	.st0{fill:#C3C5C9;}
	.st1{fill:#093046;}
	.st2{fill:#FFFFFF;}
	.st3{fill:none;stroke:#FAB613;stroke-miterlimit:10;}
	.st4{fill:none;stroke:#093046;stroke-width:0.5;stroke-linecap:round;stroke-linejoin:round;stroke-miterlimit:10;}
</style>
<g>
	<path class="st1" d="M5,11.55c-1.33,0-2.67,0-4,0C0.41,11.55,0,11.14,0,10.56C0,8.78,0,7,0,5.22c0-0.57,0.41-0.98,0.99-0.98
		c0.07,0,0.14,0,0.22,0c0.22,0,0.33-0.12,0.34-0.33c0.01-0.25,0-0.5,0.02-0.74c0.1-0.97,0.55-1.76,1.29-2.37
		c0.7-0.57,1.51-0.85,2.41-0.78C6.44,0.11,7.33,0.7,7.95,1.7C8.3,2.27,8.47,2.89,8.47,3.55c0,0.11,0,0.22,0,0.32
		c0,0.25,0.11,0.36,0.37,0.36c0.14,0,0.28,0,0.42,0.02C9.7,4.35,10,4.74,10.01,5.19c0,1.8,0,3.6,0,5.4c0,0.53-0.42,0.96-0.95,0.96
		C7.7,11.55,6.35,11.55,5,11.55z M5,4.24c0.53,0,1.06,0,1.59,0c0.19,0,0.31-0.09,0.33-0.26C7.02,3.2,6.79,2.53,6.2,2.01
		c-0.36-0.32-0.8-0.5-1.29-0.46c-0.56,0.04-1,0.31-1.35,0.74c-0.37,0.46-0.5,1-0.48,1.58c0.01,0.26,0.11,0.37,0.36,0.37
		C3.96,4.24,4.48,4.24,5,4.24z M4.62,8.76c0,0.14,0,0.29,0,0.43c0,0.25,0.16,0.43,0.39,0.43c0.22,0,0.38-0.18,0.38-0.43
		c0-0.29-0.01-0.58,0.01-0.87C5.4,8.21,5.46,8.08,5.52,7.97c0.03-0.06,0.1-0.11,0.16-0.16c0.27-0.29,0.36-0.62,0.24-0.99
		C5.78,6.43,5.49,6.21,5.09,6.17C4.72,6.13,4.42,6.28,4.2,6.59C3.93,6.99,4,7.52,4.37,7.84C4.54,7.99,4.64,8.17,4.62,8.4
		C4.61,8.52,4.62,8.64,4.62,8.76z"/>
</g>
</svg>
