<?xml version="1.0" encoding="utf-8"?>
<!-- Generator: Adobe Illustrator 26.1.0, SVG Export Plug-In . SVG Version: 6.00 Build 0)  -->
<svg version="1.1" id="Capa_1" xmlns="http://www.w3.org/2000/svg" xmlns:xlink="http://www.w3.org/1999/xlink" x="0px" y="0px"
	 viewBox="0 0 11.24 8.26" style="enable-background:new 0 0 11.24 8.26;" xml:space="preserve">
<style type="text/css">
	.st0{fill:#C3C5C9;}
	.st1{fill:#093046;}
	.st2{fill:#FFFFFF;}
	.st3{fill:none;stroke:#FAB613;stroke-miterlimit:10;}
	.st4{fill:none;stroke:#093046;stroke-width:0.5;stroke-linecap:round;stroke-linejoin:round;stroke-miterlimit:10;}
</style>
<g>
	<path class="st1" d="M11.24,1.14c0,1.99,0,3.98,0,5.97c-0.01,0.02-0.02,0.04-0.02,0.06c-0.12,0.62-0.65,1.08-1.28,1.08
		c-2.88,0-5.76,0-8.64,0C0.59,8.26,0,7.67,0,6.96C0,5.07,0,3.19,0,1.3C0,0.59,0.59,0,1.3,0c2.88,0,5.76,0,8.64,0
		c0.48,0,0.85,0.22,1.1,0.62C11.14,0.78,11.18,0.97,11.24,1.14z M0.89,1.6c0,0.03-0.01,0.04-0.01,0.05c0,1.76,0,3.51,0,5.27
		c0,0.29,0.19,0.47,0.49,0.47c2.83,0,5.66,0,8.5,0c0.32,0,0.5-0.18,0.5-0.5c0-1.73,0-3.45,0-5.18c0-0.03,0-0.06-0.01-0.1
		C8.77,2.78,7.2,3.95,5.62,5.12C4.04,3.94,2.47,2.77,0.89,1.6z M1.42,0.88C1.46,0.92,1.48,0.93,1.5,0.95c1.34,1,2.69,2,4.03,3
		c0.07,0.06,0.12,0.05,0.19,0C6.99,3,8.26,2.05,9.54,1.11c0.09-0.07,0.18-0.14,0.3-0.22C7.02,0.88,4.23,0.88,1.42,0.88z"/>
</g>
</svg>
