<?xml version="1.0" encoding="utf-8"?>
<!-- Generator: Adobe Illustrator 26.1.0, SVG Export Plug-In . SVG Version: 6.00 Build 0)  -->
<svg version="1.1" id="Capa_1" xmlns="http://www.w3.org/2000/svg" xmlns:xlink="http://www.w3.org/1999/xlink" x="0px" y="0px"
	 viewBox="0 0 9.93 6.95" style="enable-background:new 0 0 9.93 6.95;" xml:space="preserve">
<style type="text/css">
	.st0{fill:#C3C5C9;}
	.st1{fill:#093046;}
	.st2{fill:#FFFFFF;}
	.st3{fill:none;stroke:#FAB613;stroke-miterlimit:10;}
	.st4{fill:none;stroke:#093046;stroke-width:0.5;stroke-linecap:round;stroke-linejoin:round;stroke-miterlimit:10;}
</style>
<g>
	<path class="st1" d="M0,0.78c0.17,0.16,0.33,0.3,0.49,0.45c1.25,1.14,2.49,2.28,3.74,3.42c0.47,0.43,1,0.43,1.47-0.01
		C7.1,3.37,8.49,2.1,9.88,0.83C9.89,0.81,9.9,0.8,9.92,0.78c0,0.03,0.01,0.06,0.01,0.08c0,1.86,0,3.73,0,5.59
		c0,0.29-0.22,0.5-0.51,0.5c-0.86,0-1.71,0-2.57,0c-2.1,0-4.21,0-6.31,0c-0.27,0-0.46-0.14-0.52-0.38C0,6.53,0,6.49,0,6.45
		c0-1.86,0-3.72,0-5.58C0,0.85,0,0.82,0,0.78z"/>
	<path class="st1" d="M4.97,3.98C3.52,2.65,2.08,1.33,0.62,0c2.91,0,5.79,0,8.7,0C7.86,1.33,6.42,2.65,4.97,3.98z"/>
</g>
</svg>
