<?xml version="1.0" encoding="utf-8"?>
<!-- Generator: Adobe Illustrator 26.1.0, SVG Export Plug-In . SVG Version: 6.00 Build 0)  -->
<svg version="1.1" id="Capa_1" xmlns="http://www.w3.org/2000/svg" xmlns:xlink="http://www.w3.org/1999/xlink" x="0px" y="0px"
	 viewBox="0 0 11.81 11.81" style="enable-background:new 0 0 11.81 11.81;" xml:space="preserve">
<style type="text/css">
	.st0{fill:#C3C5C9;}
	.st1{fill:#093046;}
	.st2{fill:#FFFFFF;}
	.st3{fill:none;stroke:#FAB613;stroke-miterlimit:10;}
	.st4{fill:none;stroke:#093046;stroke-width:0.5;stroke-linecap:round;stroke-linejoin:round;stroke-miterlimit:10;}
</style>
<g>
	<g>
		<path class="st1" d="M5.51,0C5.78,0,6.04,0,6.3,0c0.04,0.01,0.07,0.02,0.11,0.02c0.24,0.03,0.48,0.05,0.72,0.1
			c1.24,0.27,2.29,0.87,3.14,1.8c0.77,0.84,1.26,1.82,1.45,2.95c0.04,0.21,0.06,0.42,0.09,0.63c0,0.26,0,0.52,0,0.78
			c-0.01,0.03-0.02,0.07-0.02,0.1c-0.03,0.2-0.04,0.41-0.08,0.6c-0.29,1.46-1.01,2.66-2.19,3.57c-1.39,1.08-2.98,1.45-4.7,1.14
			c-1.45-0.26-2.64-1-3.55-2.16c-1.09-1.4-1.48-3-1.16-4.74c0.27-1.45,1-2.62,2.15-3.54c0.77-0.61,1.64-1.01,2.62-1.17
			C5.09,0.06,5.3,0.03,5.51,0z M5.91,0.87C3.14,0.86,0.87,3.12,0.87,5.9c0,2.78,2.23,5.02,5.03,5.04c2.77,0.02,5.03-2.24,5.05-5.03
			C10.96,3.14,8.7,0.88,5.91,0.87z"/>
	</g>
	<g>
		<g>
			<line class="st4" x1="7.32" y1="3.82" x2="4.49" y2="7.99"/>
		</g>
		<g>
			<line class="st4" x1="4.49" y1="3.82" x2="7.32" y2="7.99"/>
		</g>
	</g>
</g>
</svg>
