<?xml version="1.0" encoding="utf-8"?>
<!-- Generator: Adobe Illustrator 26.1.0, SVG Export Plug-In . SVG Version: 6.00 Build 0)  -->
<svg version="1.1" id="Capa_1" xmlns="http://www.w3.org/2000/svg" xmlns:xlink="http://www.w3.org/1999/xlink" x="0px" y="0px"
	 viewBox="0 0 10.06 10.83" style="enable-background:new 0 0 10.06 10.83;" xml:space="preserve">
<style type="text/css">
	.st0{fill:#C3C5C9;}
	.st1{fill:#093046;}
	.st2{fill:#FFFFFF;}
	.st3{fill:none;stroke:#FAB613;stroke-miterlimit:10;}
	.st4{fill:none;stroke:#093046;stroke-width:0.5;stroke-linecap:round;stroke-linejoin:round;stroke-miterlimit:10;}
</style>
<g>
	<path class="st1" d="M5.03,10.83c-1.28,0-2.55,0-3.83,0c-0.69,0-1.2-0.5-1.2-1.19c0-0.38,0-0.77,0-1.15C0,8.13,0.14,7.82,0.43,7.6
		C1.37,6.86,2.39,6.28,3.56,6c1.32-0.32,2.6-0.21,3.85,0.29c0.8,0.32,1.52,0.76,2.2,1.29c0.3,0.23,0.44,0.54,0.44,0.92
		c0,0.39,0,0.78,0,1.17c0,0.64-0.51,1.15-1.15,1.15C7.61,10.83,6.32,10.83,5.03,10.83z"/>
	<path class="st1" d="M7.73,2.71c0,1.5-1.21,2.71-2.71,2.71c-1.51,0-2.71-1.21-2.71-2.72C2.32,1.2,3.53,0,5.04,0
		C6.53,0,7.73,1.21,7.73,2.71z"/>
</g>
</svg>
