<?xml version="1.0" encoding="utf-8"?>
<!-- Generator: Adobe Illustrator 26.1.0, SVG Export Plug-In . SVG Version: 6.00 Build 0)  -->
<svg version="1.1" id="Capa_1" xmlns="http://www.w3.org/2000/svg" xmlns:xlink="http://www.w3.org/1999/xlink" x="0px" y="0px"
	 viewBox="0 0 9.89 8.69" style="enable-background:new 0 0 9.89 8.69;" xml:space="preserve">
<style type="text/css">
	.st0{fill:#C3C5C9;}
	.st1{fill:#093046;}
	.st2{fill:#FFFFFF;}
	.st3{fill:none;stroke:#FAB613;stroke-miterlimit:10;}
	.st4{fill:none;stroke:#093046;stroke-width:0.5;stroke-linecap:round;stroke-linejoin:round;stroke-miterlimit:10;}
</style>
<g>
	<path class="st1" d="M0,7.96c0-2.2,0-4.39,0-6.59c0.07-0.16,0.19-0.22,0.37-0.22c0.81,0.01,1.62,0,2.43,0c0.04,0,0.07,0,0.11,0
		c0-0.09,0-0.17,0-0.25C2.92,0.37,3.29,0,3.83,0c0.74,0,1.48,0,2.22,0C6.6,0,6.97,0.37,6.97,0.92c0,0.08,0,0.16,0,0.24
		c0.05,0,0.09,0,0.13,0c0.82,0,1.65,0,2.47,0c0.2,0,0.31,0.11,0.31,0.31c0,2.12,0,4.24,0,6.36c0,0.12-0.03,0.26-0.09,0.37
		C9.64,8.53,9.36,8.69,8.99,8.69c-2.7,0-5.4,0-8.09,0c-0.02,0-0.04,0-0.06,0C0.59,8.68,0.38,8.58,0.21,8.39
		C0.1,8.26,0.05,8.11,0,7.96z M9.31,3.29c0,0-0.01,0-0.01,0C9.29,3.32,9.28,3.34,9.27,3.37c-0.13,0.4-0.27,0.8-0.4,1.2
		C8.73,5,8.42,5.22,7.98,5.22c-0.49,0-0.99,0-1.48,0c-0.03,0-0.07,0-0.11,0c0,0.1,0,0.19,0,0.28c0,0.18-0.12,0.3-0.3,0.3
		c-0.77,0-1.53,0-2.3,0c-0.18,0-0.3-0.12-0.3-0.3c0-0.09,0-0.18,0-0.27c-0.05,0-0.08,0-0.12,0c-0.51,0-1.02,0.01-1.53,0
		C1.48,5.21,1.21,5.02,1.07,4.68c-0.09-0.2-0.15-0.42-0.22-0.63C0.76,3.8,0.68,3.54,0.6,3.29c-0.01,0-0.01,0-0.02,0
		c0,0.03,0,0.07,0,0.1c0,1.45,0,2.89,0,4.34c0,0.28,0.1,0.38,0.38,0.38c2.66,0,5.32,0,7.98,0c0.28,0,0.38-0.1,0.38-0.38
		c0-1.45,0-2.9,0-4.35C9.31,3.36,9.31,3.33,9.31,3.29z M3.5,4.64c0-0.1,0-0.19,0-0.27c0-0.18,0.12-0.3,0.3-0.3c0.77,0,1.53,0,2.3,0
		c0.18,0,0.3,0.12,0.3,0.3c0,0.09,0,0.18,0,0.27c0.05,0,0.08,0,0.12,0c0.47,0,0.95,0,1.42,0c0.24,0,0.32-0.06,0.4-0.28
		c0.21-0.63,0.42-1.27,0.63-1.9c0.08-0.24,0.16-0.47,0.24-0.71c-2.84,0-5.66,0-8.49,0C0.71,1.77,0.71,1.8,0.72,1.83
		c0.28,0.85,0.57,1.7,0.85,2.55c0.07,0.2,0.15,0.26,0.37,0.26c0.39,0,0.78,0,1.17,0C3.24,4.64,3.36,4.64,3.5,4.64z M3.5,1.15
		c0.97,0,1.93,0,2.9,0c0-0.09,0-0.18,0-0.26C6.39,0.7,6.27,0.58,6.08,0.58c-0.76,0-1.52,0-2.28,0c-0.18,0-0.3,0.12-0.31,0.3
		C3.49,0.97,3.5,1.06,3.5,1.15z M5.81,4.64c-0.58,0-1.15,0-1.73,0c0,0.19,0,0.38,0,0.57c0.58,0,1.15,0,1.73,0
		C5.81,5.02,5.81,4.83,5.81,4.64z"/>
</g>
</svg>
