<?xml version="1.0" encoding="utf-8"?>
<!-- Generator: Adobe Illustrator 26.1.0, SVG Export Plug-In . SVG Version: 6.00 Build 0)  -->
<svg version="1.1" id="Capa_1" xmlns="http://www.w3.org/2000/svg" xmlns:xlink="http://www.w3.org/1999/xlink" x="0px" y="0px"
	 viewBox="0 0 12.91 11.63" style="enable-background:new 0 0 12.91 11.63;" xml:space="preserve">
<style type="text/css">
	.st0{fill:#C3C5C9;}
	.st1{fill:#093046;}
	.st2{fill:#FFFFFF;}
	.st3{fill:none;stroke:#FAB613;stroke-miterlimit:10;}
	.st4{fill:none;stroke:#093046;stroke-width:0.5;stroke-linecap:round;stroke-linejoin:round;stroke-miterlimit:10;}
</style>
<g>
	<path class="st1" d="M12.91,7.51c-0.07,0.2-0.18,0.37-0.39,0.47c-0.03,0.01-0.04,0.08-0.04,0.13c0,0.95,0,1.9,0,2.85
		c0,0.32-0.18,0.57-0.48,0.65c-0.08,0.02-0.17,0.03-0.26,0.03c-3.52,0-7.05,0-10.57,0c-0.48,0-0.74-0.26-0.74-0.74
		c0-0.93,0-1.86,0-2.79c0-0.08-0.02-0.12-0.09-0.16C0.12,7.82,0,7.63,0,7.38C0,5.78,0,4.19,0,2.6c0-0.39,0.29-0.66,0.7-0.66
		c0.86,0,1.71,0,2.57,0c0.05,0,0.1,0,0.16,0c0-0.26-0.01-0.52,0-0.77c0.01-0.18,0.04-0.38,0.11-0.55C3.75,0.2,4.11,0,4.58,0
		c1.25,0,2.5,0,3.76,0c0.56,0,0.96,0.31,1.1,0.83c0.03,0.11,0.03,0.22,0.04,0.34c0.01,0.25,0,0.5,0,0.76c0.05,0,0.1,0,0.15,0
		c0.81,0,1.61,0.01,2.42,0c0.41-0.01,0.71,0.1,0.87,0.51C12.91,4.13,12.91,5.82,12.91,7.51z M7.31,8.26c0.05,0,0.08,0,0.11,0
		C7.87,8.2,8.31,8.14,8.76,8.08c0.64-0.09,1.29-0.18,1.93-0.27c0.51-0.07,1.02-0.14,1.53-0.21c0.2-0.03,0.25-0.1,0.25-0.3
		c0-1.54,0-3.08,0-4.63c0-0.21-0.07-0.29-0.29-0.29c-3.82,0-7.65,0-11.47,0c-0.22,0-0.29,0.07-0.29,0.3c0,1.54,0,3.08,0,4.61
		c0,0.21,0.06,0.28,0.26,0.31c0.68,0.1,1.37,0.19,2.06,0.28C3.52,7.99,4.29,8.1,5.07,8.2C5.24,8.23,5.41,8.25,5.6,8.27
		c0-0.13,0-0.23,0-0.34c0.01-0.32,0.26-0.58,0.58-0.6c0.18-0.01,0.36-0.01,0.54,0c0.34,0.02,0.58,0.28,0.6,0.63
		C7.31,8.06,7.31,8.16,7.31,8.26z M0.86,8.06c0,0.05,0,0.09,0,0.13c0,0.89,0,1.79,0,2.68c0,0.25,0.07,0.31,0.31,0.31
		c3.52,0,7.04,0,10.56,0c0.25,0,0.31-0.07,0.31-0.31c0-0.89,0-1.79,0-2.68c0-0.04,0-0.08,0-0.13C10.46,8.28,8.89,8.5,7.31,8.72
		c0,0.2,0,0.39,0,0.57C7.3,9.62,7.03,9.89,6.7,9.9c-0.14,0-0.28,0-0.42,0C5.89,9.93,5.57,9.61,5.59,9.21c0.01-0.16,0-0.33,0-0.49
		C4.01,8.5,2.44,8.28,0.86,8.06z M9.02,1.93c0-0.03,0.01-0.05,0.01-0.06c0-0.27,0-0.54,0-0.81C9.02,0.72,8.75,0.45,8.41,0.45
		c-1.3,0-2.6,0-3.9,0c-0.3,0-0.58,0.22-0.61,0.52C3.86,1.28,3.89,1.6,3.89,1.93c0.14,0,0.27,0,0.41,0c0-0.25,0-0.49,0-0.73
		c0-0.28,0.06-0.34,0.34-0.34c1.18,0,2.36,0,3.54,0c0.41,0,0.43,0.02,0.43,0.44c0,0.21,0,0.42,0,0.63C8.76,1.93,8.88,1.93,9.02,1.93
		z M4.74,1.31c0,0.21,0,0.42,0,0.62c1.14,0,2.28,0,3.42,0c0-0.21,0-0.41,0-0.62C7.02,1.31,5.89,1.31,4.74,1.31z M6.88,8.62
		c0-0.21,0-0.41,0-0.62c0-0.17-0.09-0.25-0.25-0.25c-0.12,0-0.24,0-0.36,0c-0.15,0-0.24,0.08-0.24,0.23c0,0.42,0,0.83,0,1.25
		c0,0.15,0.09,0.23,0.24,0.24c0.12,0,0.24,0,0.36,0c0.17,0,0.25-0.09,0.25-0.26C6.88,9.02,6.88,8.82,6.88,8.62z"/>
</g>
</svg>
