<?xml version="1.0" encoding="utf-8"?>
<!-- Generator: Adobe Illustrator 26.1.0, SVG Export Plug-In . SVG Version: 6.00 Build 0)  -->
<svg version="1.1" id="Capa_1" xmlns="http://www.w3.org/2000/svg" xmlns:xlink="http://www.w3.org/1999/xlink" x="0px" y="0px"
	 viewBox="0 0 13.81 13.81" style="enable-background:new 0 0 13.81 13.81;" xml:space="preserve">
<style type="text/css">
	.st0{fill:#C3C5C9;}
	.st1{fill:#093046;}
	.st2{fill:#FFFFFF;}
	.st3{fill:none;stroke:#FAB613;stroke-miterlimit:10;}
	.st4{fill:none;stroke:#093046;stroke-width:0.5;stroke-linecap:round;stroke-linejoin:round;stroke-miterlimit:10;}
</style>
<g>
	<path class="st1" d="M9.5,13.81c-2.82,0-5.65,0-8.47,0c-0.01-0.01-0.01-0.01-0.02-0.02C0.39,13.68,0,13.13,0,12.48
		C0.01,8.75,0.01,5.03,0.01,1.3C0.01,0.51,0.52,0,1.3,0c2.13,0,4.26,0,6.39,0c0.38,0,0.7,0.12,0.97,0.38
		c0.47,0.45,0.95,0.91,1.43,1.36c0.29,0.28,0.44,0.61,0.43,1.02c-0.01,1.23,0,2.46,0,3.69c0,0.04,0,0.09,0,0.17
		c0.39-0.46,0.75-0.88,1.11-1.31c0.58-0.69,1.56-0.63,2.02,0.13c0.08,0.13,0.11,0.29,0.16,0.44c0,0.12,0,0.23,0,0.35
		c-0.07,0.26-0.19,0.49-0.37,0.7c-0.95,1.12-1.9,2.24-2.84,3.37c-0.04,0.05-0.07,0.13-0.07,0.2c-0.01,0.69,0,1.38,0,2.08
		c0,0.4-0.15,0.74-0.48,0.97C9.88,13.67,9.68,13.73,9.5,13.81z M7.29,0.81c-0.06,0-0.11,0-0.16,0c-1.93,0-3.86,0-5.78,0
		c-0.38,0-0.53,0.14-0.53,0.53c0,3.71,0,7.42,0,11.13c0,0.4,0.14,0.54,0.53,0.54c2.61,0,5.22,0,7.83,0c0.03,0,0.06,0,0.09,0
		c0.27-0.01,0.43-0.17,0.44-0.44c0-0.27,0-0.53,0-0.8c0-0.14,0-0.27,0-0.42c-0.11,0.06-0.2,0.13-0.29,0.17
		c-0.49,0.22-0.98,0.43-1.48,0.64c-0.08,0.03-0.19,0.05-0.27,0.03c-0.25-0.05-0.35-0.27-0.29-0.56c0.1-0.44,0.21-0.88,0.31-1.32
		c0.06-0.26,0.14-0.5,0.32-0.7c0.54-0.64,1.08-1.27,1.62-1.92c0.05-0.06,0.08-0.15,0.08-0.23c0-1.35,0-2.71,0-4.06
		c0-0.05,0-0.1,0-0.15c-0.07,0-0.11,0-0.16,0c-0.59,0-1.18-0.01-1.77,0c-0.32,0.01-0.51-0.19-0.5-0.5C7.3,2.11,7.29,1.47,7.29,0.81z
		 M9.89,9.87c0.75-0.88,1.49-1.76,2.23-2.64c-0.21-0.18-0.41-0.34-0.61-0.51c-0.74,0.88-1.48,1.76-2.23,2.64
		C9.49,9.53,9.69,9.7,9.89,9.87z M8.11,0.98c0,0.5,0,0.97,0,1.44c0.5,0,0.99,0,1.51,0C9.11,1.93,8.61,1.46,8.11,0.98z M12.65,6.61
		c0.1-0.13,0.21-0.24,0.29-0.36c0.11-0.17,0.07-0.38-0.09-0.51c-0.15-0.12-0.36-0.13-0.5,0c-0.11,0.11-0.21,0.23-0.32,0.35
		C12.24,6.27,12.44,6.43,12.65,6.61z M9.36,10.5c-0.21-0.17-0.41-0.34-0.61-0.51c-0.32,0.3-0.27,0.71-0.41,1.09
		C8.82,10.94,9.17,10.74,9.36,10.5z"/>
	<path class="st1" d="M5.26,4.88c1.08,0,2.16,0,3.23,0c0.21,0,0.38,0.15,0.4,0.34c0.03,0.2-0.09,0.39-0.28,0.45
		C8.57,5.69,8.51,5.69,8.46,5.69c-2.13,0-4.26,0-6.39,0c-0.27,0-0.45-0.16-0.45-0.41c0-0.24,0.18-0.4,0.44-0.4
		C3.13,4.88,4.2,4.88,5.26,4.88z"/>
	<path class="st1" d="M5.28,7.31c1.07,0,2.14,0,3.21,0c0.22,0,0.39,0.14,0.42,0.34c0.03,0.2-0.09,0.39-0.29,0.45
		c-0.05,0.01-0.1,0.02-0.15,0.02c-2.14,0-4.28,0-6.42,0c-0.25,0-0.43-0.16-0.43-0.4c0-0.24,0.17-0.41,0.43-0.41
		C3.13,7.31,4.21,7.31,5.28,7.31z"/>
	<path class="st1" d="M4.06,2.43c0.66,0,1.31,0,1.97,0c0.27,0,0.44,0.16,0.45,0.4c0,0.25-0.17,0.41-0.45,0.41c-1.32,0-2.64,0-3.96,0
		c-0.27,0-0.44-0.16-0.45-0.4c0-0.25,0.17-0.41,0.45-0.41C2.74,2.43,3.4,2.43,4.06,2.43z"/>
	<path class="st1" d="M4.04,10.55c-0.66,0-1.31,0-1.97,0c-0.27,0-0.44-0.16-0.45-0.4c0-0.25,0.17-0.41,0.45-0.41
		c1.32,0,2.64,0,3.96,0c0.27,0,0.44,0.16,0.45,0.4c0,0.25-0.17,0.41-0.45,0.41C5.37,10.55,4.7,10.55,4.04,10.55z"/>
</g>
</svg>
