<?xml version="1.0" encoding="utf-8"?>
<!-- Generator: Adobe Illustrator 26.1.0, SVG Export Plug-In . SVG Version: 6.00 Build 0)  -->
<svg version="1.1" id="Capa_1" xmlns="http://www.w3.org/2000/svg" xmlns:xlink="http://www.w3.org/1999/xlink" x="0px" y="0px"
	 viewBox="0 0 10.67 10.61" style="enable-background:new 0 0 10.67 10.61;" xml:space="preserve">
<style type="text/css">
	.st0{fill:#C3C5C9;}
	.st1{fill:#093046;}
	.st2{fill:#FFFFFF;}
	.st3{fill:none;stroke:#FAB613;stroke-miterlimit:10;}
	.st4{fill:none;stroke:#093046;stroke-width:0.5;stroke-linecap:round;stroke-linejoin:round;stroke-miterlimit:10;}
</style>
<g>
	<path class="st1" d="M6.97,8.15c0-0.21-0.01-0.42-0.01-0.62c0-0.2,0-0.4,0-0.61c-0.41,0-0.82,0-1.23,0c0-0.42,0-0.83,0-1.24
		c0.41,0,0.81,0,1.23,0c0,0.41,0,0.81,0,1.22c0.41,0,0.81,0,1.23,0c0-0.4,0-0.81,0-1.22c0.42,0,0.83,0,1.25,0c0,0.4,0,0.81,0,1.22
		c0.42,0,0.83,0,1.24,0c0,0.42,0,0.83,0,1.25c-0.41,0-0.82,0-1.24,0c0-0.41,0-0.82,0-1.23c-0.41,0-0.81,0-1.23,0
		c0,0.4,0,0.81,0,1.23C7.78,8.15,7.37,8.15,6.97,8.15L6.97,8.15z"/>
	<path class="st1" d="M5.67,2.29c0-0.62,0-1.24,0-1.85C5.67,0.14,5.81,0,6.1,0c1.24,0,2.48,0,3.72,0c0.29,0,0.43,0.14,0.43,0.43
		c0,1.24,0,2.48,0,3.72c0,0.29-0.14,0.43-0.43,0.43c-1.24,0-2.48,0-3.72,0c-0.29,0-0.43-0.14-0.43-0.43
		C5.67,3.53,5.67,2.91,5.67,2.29z M6.4,0.73c0,1.05,0,2.08,0,3.12c1.04,0,2.08,0,3.12,0c0-1.04,0-2.08,0-3.12
		C8.48,0.73,7.44,0.73,6.4,0.73z"/>
	<path class="st1" d="M2.29,5.67c0.62,0,1.24,0,1.86,0c0.28,0,0.43,0.14,0.43,0.42c0,1.24,0,2.49,0,3.73c0,0.28-0.15,0.42-0.42,0.43
		c-1.24,0-2.49,0-3.73,0C0.15,10.24,0,10.1,0,9.82c0-1.24,0-2.49,0-3.73c0-0.28,0.14-0.42,0.42-0.42C1.05,5.67,1.67,5.67,2.29,5.67z
		 M0.73,6.39c0,1.05,0,2.08,0,3.12c1.04,0,2.08,0,3.11,0c0-1.04,0-2.08,0-3.12C2.81,6.39,1.77,6.39,0.73,6.39z"/>
	<path class="st1" d="M0,2.29C0,1.66,0,1.03,0,0.4C0,0.15,0.14,0,0.4,0c1.26,0,2.51,0,3.77,0c0.25,0,0.4,0.14,0.4,0.39
		c0,1.26,0,2.53,0,3.79c0,0.25-0.15,0.39-0.4,0.39c-1.26,0-2.51,0-3.77,0C0.14,4.58,0,4.43,0,4.17C0,3.55,0,2.92,0,2.29z M0.72,3.84
		c1.05,0,2.09,0,3.13,0c0-1.04,0-2.08,0-3.11c-1.04,0-2.08,0-3.13,0C0.72,1.77,0.72,2.8,0.72,3.84z"/>
	<path class="st1" d="M8.2,9.38c0.42,0,0.82,0,1.23,0c0,0.41,0,0.82,0,1.23c-0.41,0-0.82,0-1.23,0C8.2,10.2,8.2,9.79,8.2,9.38z"/>
	<path class="st1" d="M6.96,8.15c0,0.36,0,0.72-0.01,1.08c0,0.04,0,0.09,0,0.14c-0.41,0-0.82,0-1.23,0c0-0.41,0-0.82,0-1.22
		C6.14,8.15,6.56,8.15,6.96,8.15C6.97,8.15,6.96,8.15,6.96,8.15z"/>
	<path class="st1" d="M7.34,2.9c0-0.41,0-0.82,0-1.23c0.41,0,0.82,0,1.23,0c0,0.41,0,0.82,0,1.23C8.17,2.9,7.76,2.9,7.34,2.9z"/>
	<path class="st1" d="M1.67,8.57c0-0.41,0-0.81,0-1.23c0.41,0,0.82,0,1.23,0c0,0.41,0,0.81,0,1.23C2.5,8.57,2.09,8.57,1.67,8.57z"/>
	<path class="st1" d="M1.67,1.67c0.41,0,0.81,0,1.22,0c0,0.41,0,0.82,0,1.23c-0.4,0-0.81,0-1.22,0C1.67,2.5,1.67,2.09,1.67,1.67z"/>
</g>
</svg>
