<?xml version="1.0" encoding="utf-8"?>
<!-- Generator: Adobe Illustrator 26.1.0, SVG Export Plug-In . SVG Version: 6.00 Build 0)  -->
<svg version="1.1" id="Capa_1" xmlns="http://www.w3.org/2000/svg" xmlns:xlink="http://www.w3.org/1999/xlink" x="0px" y="0px"
	 viewBox="0 0 12.3 12.3" style="enable-background:new 0 0 12.3 12.3;" xml:space="preserve">
<style type="text/css">
	.st0{fill:#C3C5C9;}
	.st1{fill:#093046;}
	.st2{fill:#FFFFFF;}
	.st3{fill:none;stroke:#FAB613;stroke-miterlimit:10;}
	.st4{fill:none;stroke:#093046;stroke-width:0.5;stroke-linecap:round;stroke-linejoin:round;stroke-miterlimit:10;}
</style>
<g>
	<path class="st1" d="M5.74,0c0.27,0,0.54,0,0.82,0C6.6,0.01,6.64,0.02,6.67,0.02c0.25,0.04,0.5,0.05,0.75,0.11
		c1.29,0.28,2.38,0.9,3.27,1.88c0.8,0.88,1.31,1.9,1.51,3.07c0.04,0.22,0.06,0.44,0.1,0.66c0,0.27,0,0.54,0,0.82
		c-0.01,0.03-0.02,0.07-0.02,0.1c-0.03,0.21-0.04,0.42-0.08,0.63c-0.3,1.52-1.05,2.77-2.28,3.71c-1.45,1.12-3.1,1.51-4.9,1.18
		c-1.51-0.28-2.75-1.04-3.69-2.25C0.18,8.48-0.22,6.82,0.11,5c0.28-1.51,1.04-2.73,2.24-3.68c0.8-0.64,1.71-1.05,2.72-1.22
		C5.3,0.06,5.52,0.03,5.74,0z M6.15,0.9C3.26,0.89,0.91,3.25,0.91,6.14c0,2.89,2.32,5.22,5.23,5.24c2.88,0.02,5.24-2.33,5.25-5.24
		C11.41,3.27,9.06,0.91,6.15,0.9z"/>
	<path class="st1" d="M6.3,6.15c0.06,0,0.11,0,0.15,0c0.59,0,1.18,0,1.78,0c0.26,0,0.45,0.18,0.47,0.42
		c0.01,0.25-0.16,0.45-0.42,0.48c-0.04,0-0.08,0.01-0.12,0.01c-0.74,0-1.48,0-2.22,0c-0.07,0-0.15,0-0.21-0.02
		C5.54,6.98,5.41,6.81,5.41,6.62c0-1.06-0.01-2.13,0-3.19c0-0.3,0.31-0.5,0.59-0.4c0.18,0.06,0.28,0.19,0.3,0.38
		C6.3,3.46,6.3,3.52,6.3,3.58c0,0.8,0,1.61,0,2.41C6.3,6.04,6.3,6.08,6.3,6.15z"/>
</g>
</svg>
