<?xml version="1.0" encoding="utf-8"?>
<!-- Generator: Adobe Illustrator 26.1.0, SVG Export Plug-In . SVG Version: 6.00 Build 0)  -->
<svg version="1.1" id="Capa_1" xmlns="http://www.w3.org/2000/svg" xmlns:xlink="http://www.w3.org/1999/xlink" x="0px" y="0px"
	 viewBox="0 0 11.8 11.8" style="enable-background:new 0 0 11.8 11.8;" xml:space="preserve">
<style type="text/css">
	.st0{fill:#C3C5C9;}
	.st1{fill:#093046;}
	.st2{fill:#FFFFFF;}
	.st3{fill:none;stroke:#FAB613;stroke-miterlimit:10;}
	.st4{fill:none;stroke:#093046;stroke-width:0.5;stroke-linecap:round;stroke-linejoin:round;stroke-miterlimit:10;}
</style>
<circle class="st0" cx="5.9" cy="5.64" r="5.5"/>
<g>
	<path class="st2" d="M9.47,9.95c-0.01-0.02-0.2-0.02-0.21-0.04C8.9,9.19,8.35,8.67,7.64,8.32C7.12,8.05,6.57,7.92,5.98,7.89
		C5.49,7.86,5.02,7.94,4.56,8.1C3.88,8.33,3.29,8.72,2.83,9.29c-0.17,0.21-0.5,0.66-0.5,0.66c0.95,0.73,2.22,1.2,3.51,1.2
		C7.14,11.15,8.51,10.69,9.47,9.95z"/>
	<path class="st2" d="M5.91,7.12c1.19,0,1.94-0.92,2.05-2.06C7.89,3.87,7.09,2.95,5.87,2.94C4.68,2.93,3.73,3.81,3.76,5.01
		C3.78,6.38,4.69,7.12,5.91,7.12z"/>
	<path class="st2" d="M5.87,2.94c1.22,0.01,2.02,0.93,2.09,2.12C7.85,6.2,7.09,7.12,5.91,7.12c-1.22,0-2.13-0.74-2.15-2.11
		C3.73,3.81,4.68,2.93,5.87,2.94z"/>
</g>
<circle class="st3" cx="5.9" cy="5.9" r="5.4"/>
</svg>
