<?xml version="1.0" encoding="utf-8"?>
<!-- Generator: Adobe Illustrator 26.1.0, SVG Export Plug-In . SVG Version: 6.00 Build 0)  -->
<svg version="1.1" id="Capa_1" xmlns="http://www.w3.org/2000/svg" xmlns:xlink="http://www.w3.org/1999/xlink" x="0px" y="0px"
	 viewBox="0 0 37 37" style="enable-background:new 0 0 37 37;" xml:space="preserve">
<style type="text/css">
	.st0{fill:#C3C5C9;}
	.st1{fill:#093046;}
	.st2{fill:#FFFFFF;}
	.st3{fill:none;stroke:#FAB613;stroke-miterlimit:10;}
	.st4{fill:none;stroke:#093046;stroke-width:0.5;stroke-linecap:round;stroke-linejoin:round;stroke-miterlimit:10;}
</style>
<circle class="st0" cx="18.5" cy="18.5" r="18.5"/>
<g>
	<path class="st2" d="M30.5,33c-0.04-0.07-0.66-0.08-0.69-0.15c-1.21-2.4-3.07-4.15-5.45-5.36c-1.75-0.88-3.6-1.33-5.57-1.43
		c-1.66-0.09-3.24,0.17-4.78,0.69c-2.31,0.79-4.29,2.11-5.84,4.01C7.6,31.47,6.5,33,6.5,33c3.2,2.46,7.45,4.04,11.81,4.04
		C22.69,37.04,27.29,35.49,30.5,33z"/>
	<path class="st2" d="M18.53,23.47c3.99-0.01,6.53-3.08,6.88-6.92c-0.22-4-2.91-7.1-7.02-7.12c-3.98-0.03-7.17,2.91-7.1,6.95
		C11.38,20.99,14.44,23.48,18.53,23.47z"/>
	<path class="st2" d="M18.4,9.42c4.11,0.03,6.8,3.12,7.02,7.12c-0.36,3.84-2.89,6.91-6.88,6.92c-4.09,0.01-7.15-2.48-7.23-7.1
		C11.22,12.33,14.41,9.39,18.4,9.42z"/>
</g>
</svg>
