<?xml version="1.0" encoding="utf-8"?>
<!-- Generator: Adobe Illustrator 26.1.0, SVG Export Plug-In . SVG Version: 6.00 Build 0)  -->
<svg version="1.1" id="Capa_1" xmlns="http://www.w3.org/2000/svg" xmlns:xlink="http://www.w3.org/1999/xlink" x="0px" y="0px"
	 viewBox="0 0 8.79 9.47" style="enable-background:new 0 0 8.79 9.47;" xml:space="preserve">
<style type="text/css">
	.st0{fill:#C3C5C9;}
	.st1{fill:#093046;}
	.st2{fill:#FFFFFF;}
	.st3{fill:none;stroke:#FAB613;stroke-miterlimit:10;}
	.st4{fill:none;stroke:#093046;stroke-width:0.5;stroke-linecap:round;stroke-linejoin:round;stroke-miterlimit:10;}
</style>
<g>
	<path class="st1" d="M4.39,9.47c-1.12,0-2.23,0-3.35,0C0.44,9.47,0,9.03,0,8.43c0-0.33,0-0.67,0-1C0,7.1,0.12,6.83,0.37,6.64
		C1.2,6,2.09,5.49,3.11,5.25C4.26,4.96,5.39,5.06,6.48,5.5c0.7,0.28,1.33,0.67,1.92,1.13c0.26,0.2,0.39,0.48,0.39,0.81
		c0,0.34,0,0.68,0,1.02c0,0.56-0.45,1.01-1.01,1.01C6.66,9.47,5.52,9.47,4.39,9.47z"/>
	<path class="st1" d="M6.76,2.37c0,1.31-1.05,2.37-2.37,2.37c-1.32,0-2.37-1.06-2.37-2.38C2.03,1.05,3.09,0,4.41,0
		C5.71,0,6.76,1.06,6.76,2.37z"/>
</g>
</svg>
